<?xml version="1.0" standalone="no"?>
<!DOCTYPE svg PUBLIC "-//W3C//DTD SVG 20010904//EN"
 "http://www.w3.org/TR/2001/REC-SVG-20010904/DTD/svg10.dtd">
<svg version="1.0" xmlns="http://www.w3.org/2000/svg"
 width="452.000000pt" height="398.000000pt" viewBox="0 0 452.000000 398.000000"
 preserveAspectRatio="xMidYMid meet">

<g transform="translate(0.000000,398.000000) scale(0.100000,-0.100000)"
fill="#000000" stroke="none">
<path d="M1 3043 c1 -516 5 -912 8 -881 6 53 32 101 47 86 3 -4 -6 -177 -21
-385 -25 -355 -47 -1119 -25 -908 18 181 33 404 31 460 -2 72 47 758 58 799
13 55 31 42 31 -22 0 -61 -24 -419 -40 -602 -5 -58 -9 -150 -9 -205 0 -99 -24
-443 -61 -877 -11 -126 -20 -291 -20 -368 l0 -141 568 2 c312 1 577 5 590 10
14 6 21 5 17 -1 -3 -5 120 -9 328 -10 328 0 335 0 340 20 3 12 1 18 -5 14 -6
-4 -8 1 -4 14 4 11 2 23 -4 27 -6 4 -13 -7 -17 -26 l-6 -32 -14 27 c-10 19
-11 31 -3 46 6 11 15 18 21 15 5 -4 9 1 9 9 0 9 5 16 10 16 7 0 7 -6 1 -19 -8
-15 -6 -22 12 -36 18 -13 22 -24 19 -46 l-4 -30 210 1 c178 1 210 4 205 16 -6
17 15 18 37 3 13 -9 12 -10 -2 -5 -10 3 -18 1 -18 -5 0 -5 20 -9 45 -8 25 2
45 7 45 12 0 6 5 6 13 0 6 -5 75 -10 152 -11 l140 -3 53 58 c30 32 50 51 46
43 -4 -8 -16 -25 -27 -37 -18 -20 -18 -23 -4 -23 9 0 17 -5 17 -10 0 -7 -6 -7
-18 -1 -19 10 -42 -2 -42 -21 0 -13 55 -9 69 4 11 10 13 10 7 1 -6 -10 36 -13
193 -13 194 0 201 1 201 20 0 11 6 20 13 20 6 0 1 6 -13 13 -17 8 -25 21 -25
37 0 24 2 25 70 26 72 1 344 -20 404 -31 23 -4 37 -2 43 7 7 9 8 8 4 -6 -4
-11 -1 -23 6 -27 9 -6 9 -13 0 -33 -10 -23 -9 -26 7 -26 11 0 28 15 40 33 11
17 21 27 21 22 0 -6 -7 -20 -15 -32 -15 -22 -15 -22 30 -21 25 0 45 4 45 9 0
5 9 9 20 9 11 0 20 5 20 10 0 6 29 10 67 10 62 0 66 -1 47 -16 -16 -13 -16
-15 -1 -10 9 3 17 1 17 -4 0 -6 37 -10 85 -10 l85 0 -6 25 c-16 62 -19 60 99
56 118 -4 107 -10 113 64 3 50 7 52 13 10 l6 -40 73 -3 72 -3 0 48 c0 26 -7
127 -15 223 -12 147 -31 400 -60 830 -7 100 -64 858 -70 929 -3 31 -12 144
-20 251 -8 107 -20 242 -25 300 -17 174 -41 469 -47 573 -5 93 -5 97 15 97 12
0 26 -8 31 -18 5 -10 26 -207 46 -438 19 -230 40 -471 45 -534 6 -63 24 -299
40 -525 17 -225 37 -482 44 -570 l13 -160 2 174 c0 96 -6 256 -14 355 -8 100
-28 343 -45 541 -16 198 -41 491 -55 650 -14 160 -28 338 -32 398 l-6 107 25
0 c25 0 26 -3 37 -92 19 -163 50 -496 67 -723 9 -121 18 -222 20 -224 2 -2 4
374 4 837 l0 842 -1578 0 -1579 0 -24 -26 c-30 -33 -97 -76 -111 -72 -6 2 17
21 51 41 33 21 63 42 66 47 4 6 -240 10 -669 10 l-676 0 1 -937z m1029 913 c0
-2 -12 -11 -27 -20 l-28 -17 24 20 c23 21 31 25 31 17z m-60 -40 c0 -3 -15
-14 -32 -26 l-33 -22 30 26 c31 27 35 29 35 22z m-78 -58 c-7 -7 -12 -21 -13
-32 0 -21 0 -21 -9 -1 -8 19 -11 18 -14 -7 0 -7 -10 -14 -21 -16 -15 -2 -10 6
19 33 37 32 65 50 38 23z m288 9 c0 -2 -18 -20 -39 -41 -22 -21 -39 -32 -37
-24 3 22 76 84 76 65z m-109 -56 c-8 -5 -10 -14 -6 -21 5 -8 4 -11 -2 -7 -6 4
-13 0 -17 -8 -9 -25 -22 -17 -22 13 0 24 4 28 30 30 21 1 27 -1 17 -7z m374
-6 c-23 -8 -165 -11 -153 -4 7 5 47 8 88 8 41 0 71 -2 65 -4z m95 1 c0 -9 -30
-14 -35 -6 -4 6 3 10 14 10 12 0 21 -2 21 -4z m-712 -107 c-10 -7 -10 -9 1 -9
11 0 9 -4 -5 -15 -24 -18 -40 -19 -25 -1 7 8 8 15 2 18 -5 1 -7 16 -4 31 4 19
8 24 13 17 5 -8 11 0 16 21 l9 34 3 -44 c2 -28 -1 -47 -10 -52z m759 75 c-3
-3 -12 -4 -19 -1 -8 3 -5 6 6 6 11 1 17 -2 13 -5z m94 -11 c13 -16 12 -17 -3
-4 -16 12 -18 11 -19 -5 0 -11 -3 -14 -5 -7 -3 7 -12 9 -20 6 -8 -3 -14 -1
-14 5 0 11 16 20 36 21 6 1 18 -7 25 -16z m-191 -7 c0 -8 -48 -12 -66 -5 -13
5 -7 8 24 8 23 1 42 -1 42 -3z m-201 -70 c52 -54 33 -48 -23 8 -27 26 -40 43
-30 38 11 -6 34 -26 53 -46z m673 -30 c2 -41 9 -66 23 -82 12 -14 22 -18 26
-12 4 6 14 0 23 -15 9 -14 26 -27 36 -30 34 -9 24 -36 -12 -35 -18 1 -27 3
-21 5 10 4 9 10 -2 26 -12 18 -26 22 -64 22 -55 0 -56 1 -65 32 -6 18 -2 22
24 28 20 4 30 13 30 25 0 11 -6 18 -12 16 -77 -23 -108 -27 -125 -17 -15 9
-13 11 17 11 38 2 77 7 98 15 9 3 10 17 6 47 -5 30 -3 40 4 33 6 -5 12 -37 14
-69z m-1052 50 c0 -2 -7 -9 -15 -16 -13 -11 -14 -10 -9 4 5 14 24 23 24 12z
m468 -8 c-2 -6 -10 -14 -16 -16 -7 -2 -10 2 -6 12 7 18 28 22 22 4z m102 -7
c0 -5 -20 -11 -45 -13 -51 -4 -55 -1 -22 12 29 12 67 12 67 1z m-482 -21 c-15
-24 -25 -26 -25 -5 0 8 4 12 9 9 4 -3 8 0 8 5 0 6 5 11 10 11 6 0 5 -8 -2 -20z
m777 10 c-3 -5 -12 -10 -18 -10 -7 0 -6 4 3 10 19 12 23 12 15 0z m-873 -28
c-44 -44 -115 -82 -96 -51 8 13 94 69 106 69 4 0 0 -8 -10 -18z m149 -57 c5
-7 -7 -10 -33 -10 l-40 0 28 24 c21 18 29 20 32 10 3 -8 8 -19 13 -24z m416
29 c-3 -3 -12 -4 -19 -1 -8 3 -5 6 6 6 11 1 17 -2 13 -5z m-537 -39 c-7 -8
-23 -15 -37 -15 -13 0 -36 -6 -51 -14 -27 -14 -107 -110 -132 -157 -7 -13 -28
-41 -46 -61 -22 -25 -31 -43 -27 -55 5 -12 2 -15 -10 -10 -15 6 -16 1 -11 -33
4 -26 3 -40 -4 -40 -6 0 -10 -6 -8 -12 1 -7 1 -10 -1 -5 -3 4 -10 4 -16 0 -8
-4 -8 -1 1 9 7 9 11 37 10 66 -2 49 15 88 33 76 5 -3 9 0 9 5 0 6 5 10 11 8 6
-1 14 4 17 12 3 9 0 11 -7 6 -9 -5 -9 -2 0 13 7 12 16 19 20 17 3 -3 11 6 17
20 6 13 37 51 69 85 32 34 61 71 65 81 7 17 10 18 28 7 17 -11 25 -10 48 3 31
18 40 16 22 -6z m1155 5 c10 -11 16 -20 13 -20 -3 0 -13 9 -23 20 -10 11 -16
20 -13 20 3 0 13 -9 23 -20z m-859 -25 c0 -14 -5 -25 -9 -25 -5 0 -5 -9 -2
-20 8 -24 -2 -26 -27 -3 -24 21 -23 32 2 26 26 -7 27 22 3 36 -16 9 -14 10 8
11 22 0 27 -4 25 -25z m51 19 c-3 -3 -12 -4 -19 -1 -8 3 -5 6 6 6 11 1 17 -2
13 -5z m-474 -14 c-12 -5 -29 -22 -37 -37 -8 -15 -32 -44 -53 -63 l-38 -35 31
35 c16 19 43 52 58 73 15 20 35 37 44 36 13 0 11 -3 -5 -9z m977 -15 c0 -14 3
-25 8 -25 4 0 13 -10 21 -22 13 -22 13 -22 -5 -6 -11 9 -31 21 -44 27 -20 8
-21 10 -6 10 13 1 17 6 13 21 -3 11 -1 20 4 20 5 0 9 -11 9 -25z m-845 -1
c-11 -8 -19 -20 -17 -25 1 -5 -1 -9 -5 -9 -5 0 -8 -14 -8 -30 0 -30 21 -54 37
-44 4 3 8 1 8 -5 0 -5 -14 -8 -32 -5 -25 4 -41 -1 -67 -20 -19 -14 -32 -26
-28 -26 14 0 -28 -38 -61 -54 -37 -19 -62 -66 -62 -116 0 -16 -4 -30 -9 -30
-5 0 -7 19 -4 43 5 41 44 107 64 107 16 0 120 108 118 122 -2 7 0 29 4 48 6
29 14 38 40 47 44 14 44 14 22 -3z m730 -14 c4 -6 9 -8 13 -6 4 2 27 -14 52
-36 25 -22 38 -36 30 -32 -8 4 -23 14 -32 22 -20 17 -24 3 -5 -18 6 -7 -1 -4
-17 8 -16 12 -36 22 -45 22 -26 0 -42 15 -35 33 7 19 29 23 39 7z m-330 -10
c-3 -5 -12 -10 -18 -10 -7 0 -6 4 3 10 19 12 23 12 15 0z m205 -38 c1 -16 2
-16 14 1 13 17 14 16 19 -2 6 -25 0 -31 -30 -31 -26 0 -39 21 -29 46 7 19 26
9 26 -14z m598 1 c11 -16 22 -38 26 -50 7 -20 4 -22 -29 -21 -20 1 -32 4 -27
7 5 3 9 25 8 49 -1 23 0 42 1 42 1 0 10 -12 21 -27z m-643 -3 c8 -13 -15 -13
-35 0 -12 8 -11 10 7 10 12 0 25 -4 28 -10z m-222 -21 c4 -16 3 -18 -9 -8 -16
13 -19 29 -5 29 5 0 11 -9 14 -21z m-191 -29 c2 -8 11 -21 21 -28 9 -7 17 -20
17 -28 0 -16 -16 -19 -25 -4 -4 6 -21 3 -46 -7 -22 -8 -42 -13 -45 -11 -10 11
9 37 37 48 29 13 37 36 19 58 -6 8 -5 8 4 0 8 -7 16 -20 18 -28z m1173 10 c10
-11 16 -20 13 -20 -3 0 -13 9 -23 20 -10 11 -16 20 -13 20 3 0 13 -9 23 -20z
m-598 -3 c-4 -13 -46 -12 -59 1 -5 5 8 8 27 9 23 1 35 -3 32 -10z m-653 -21
c-3 -9 -10 -16 -15 -16 -5 0 -4 9 3 20 14 22 21 20 12 -4z m230 -18 c11 2 16
0 12 -6 -3 -6 -2 -13 4 -17 5 -3 10 -14 10 -23 0 -15 -2 -15 -10 -2 -8 13 -10
13 -10 -1 0 -9 -6 -22 -14 -28 -12 -10 -24 -55 -30 -120 -2 -14 -7 -26 -12
-28 -12 -4 -15 49 -3 63 5 6 12 33 15 60 4 32 2 44 -4 36 -7 -10 -12 -6 -22
17 -20 49 -5 60 21 16 28 -47 40 -26 14 27 -9 19 -10 26 -3 18 7 -9 21 -14 32
-12z m486 12 c8 -5 12 -11 9 -14 -3 -3 -14 1 -25 9 -21 16 -8 20 16 5z m-781
-33 c-10 -22 -16 -24 -53 -20 -55 8 -62 16 -9 11 28 -2 44 1 47 9 3 7 0 13 -7
14 -7 0 -3 4 8 8 26 11 28 8 14 -22z m876 -9 c27 -29 29 -33 8 -14 -17 15 -35
26 -40 23 -5 -3 -10 3 -10 14 -1 10 -1 19 1 19 1 0 20 -19 41 -42z m379 27
c-4 -8 -8 -15 -10 -15 -2 0 -4 7 -4 15 0 8 4 15 10 15 5 0 7 -7 4 -15z m-572
-19 c7 4 8 2 4 -5 -9 -13 -26 -5 -25 12 0 9 2 8 6 -1 2 -6 10 -9 15 -6z
m-1001 -19 c-10 -9 -11 -8 -5 6 3 10 9 15 12 12 3 -3 0 -11 -7 -18z m330 0
c-10 -9 -11 -8 -5 6 3 10 9 15 12 12 3 -3 0 -11 -7 -18z m208 -17 c0 -10 -3
-8 -9 5 -12 27 -12 43 0 25 5 -8 9 -22 9 -30z m401 -15 c19 -19 32 -35 29 -35
-3 0 -20 16 -39 35 -19 19 -32 35 -29 35 3 0 20 -16 39 -35z m161 18 c13 -16
12 -17 -3 -4 -10 7 -18 15 -18 17 0 8 8 3 21 -13z m-718 -14 c-6 -6 -9 -17 -6
-25 4 -10 -3 -11 -34 -2 -21 5 -42 14 -47 19 -13 12 20 12 44 -1 13 -7 19 -6
24 5 3 8 11 15 18 15 9 0 9 -3 1 -11z m637 -61 c0 -13 0 -14 -29 32 l-23 35
26 -28 c14 -15 26 -33 26 -39z m45 23 c9 -23 1 -20 -24 11 -23 28 -23 29 -3
17 12 -8 24 -20 27 -28z m314 5 c-3 -3 -11 5 -18 17 -13 21 -12 21 5 5 10 -10
16 -20 13 -22z m-1413 2 c-3 -23 -36 -39 -36 -18 0 6 -5 8 -12 4 -9 -5 -8 -2
1 10 10 12 16 13 21 6 5 -8 9 -7 13 4 9 24 17 19 13 -6z m887 -45 c6 -28 3
-32 -23 -42 -24 -8 -30 -7 -30 3 0 8 9 16 19 19 13 3 19 13 18 31 -1 14 -5 26
-9 26 -5 0 -8 5 -8 12 0 24 27 -16 33 -49z m437 18 c-1 -13 -3 -13 -15 3 -19
26 -19 42 0 26 8 -7 15 -20 15 -29z m20 18 c0 -6 -4 -7 -10 -4 -5 3 -10 11
-10 16 0 6 5 7 10 4 6 -3 10 -11 10 -16z m-1253 -4 c0 -8 -6 -16 -14 -19 -15
-6 -15 -4 -7 18 8 20 21 21 21 1z m386 0 c-3 -9 -8 -14 -10 -11 -3 3 -2 9 2
15 9 16 15 13 8 -4z m177 -25 c0 -13 -1 -13 -10 0 -5 8 -10 22 -10 30 0 13 1
13 10 0 5 -8 10 -22 10 -30z m320 -3 c0 -23 -2 -22 -19 10 -10 19 -9 22 4 17
8 -4 15 -15 15 -27z m430 8 c0 -8 -4 -17 -10 -20 -6 -3 -9 4 -8 19 2 25 18 26
18 1z m428 -10 c-3 -3 -9 2 -12 12 -6 14 -5 15 5 6 7 -7 10 -15 7 -18z m-1385
-64 c-9 -37 -18 -23 -19 32 -1 51 -1 52 12 21 7 -17 10 -41 7 -53z m-93 54
c-7 -8 -18 -15 -24 -15 -6 0 -2 7 8 15 25 19 32 19 16 0z m140 -29 c0 -26 -6
-18 -14 19 -5 22 -4 26 4 15 5 -8 10 -24 10 -34z m691 -9 l20 -42 -27 34 c-16
19 -29 41 -30 48 -4 24 16 2 37 -40z m-392 -37 c-7 -22 -16 -40 -21 -40 -4 0
-8 -12 -8 -27 0 -27 -20 -71 -20 -46 0 6 -3 19 -7 29 -5 13 -3 15 7 9 10 -6
12 -3 8 13 -4 13 0 23 8 26 8 3 14 11 14 17 0 8 -5 7 -17 -2 -15 -13 -15 -12
-2 9 8 12 17 22 20 22 4 0 5 9 2 20 -3 11 -10 17 -15 14 -5 -3 -4 3 3 14 13
20 13 20 26 2 11 -16 12 -27 2 -60z m362 -35 c25 -32 22 -30 -16 10 -25 28
-56 64 -67 80 -25 37 37 -31 83 -90z m-131 95 c0 -5 -2 -10 -4 -10 -3 0 -8 5
-11 10 -3 6 -1 10 4 10 6 0 11 -4 11 -10z m235 -11 c-3 -9 -1 -20 5 -24 5 -3
10 -11 10 -16 0 -6 -11 2 -24 18 -26 30 -26 40 -1 40 10 0 13 -6 10 -18z
m-1031 2 c4 -5 -3 -7 -14 -4 -23 6 -26 13 -6 13 8 0 17 -4 20 -9z m130 -3
c-19 -34 -43 -50 -102 -68 -36 -11 -67 -18 -69 -16 -3 2 21 11 51 20 31 9 71
30 89 46 36 33 42 36 31 18z m10 -37 l-28 -26 22 26 c12 14 22 32 23 40 0 11
2 11 6 0 3 -7 -7 -25 -23 -40z m1096 7 c0 -9 -4 -20 -10 -23 -6 -4 -10 9 -10
32 0 28 3 34 10 23 5 -8 10 -23 10 -32z m530 -20 c0 -74 -5 -73 -14 5 -5 38
-4 57 3 57 7 0 11 -24 11 -62z m-630 31 c0 -5 -4 -9 -10 -9 -5 0 -10 7 -10 16
0 8 5 12 10 9 6 -3 10 -10 10 -16z m405 -29 c5 -36 1 -29 -16 25 -6 20 -6 26
1 19 5 -5 12 -25 15 -44z m-1206 6 c-3 -3 -11 5 -18 17 -13 21 -12 21 5 5 10
-10 16 -20 13 -22z m1389 4 c17 -27 10 -25 -19 6 -13 14 -17 23 -9 19 9 -3 21
-14 28 -25z m-853 -35 c22 -29 28 -41 14 -28 -13 12 -33 37 -43 55 -24 42 -18
36 29 -27z m2499 -505 c20 -256 47 -627 61 -825 14 -198 27 -380 30 -405 7
-59 27 -335 65 -899 11 -167 18 -306 15 -309 -3 -3 -6 7 -6 21 -1 15 -2 30 -3
35 -3 9 -15 148 -22 232 -2 36 -6 88 -9 115 -3 28 -7 86 -10 130 -3 44 -10
143 -15 220 -6 77 -17 239 -25 360 -8 121 -17 234 -20 250 -2 17 -9 107 -15
200 -11 174 -43 593 -60 790 -5 61 -14 196 -20 300 -5 105 -12 226 -15 270 -4
70 -3 74 5 30 5 -27 25 -259 44 -515z m-3090 535 c3 -8 1 -15 -4 -15 -6 0 -10
7 -10 15 0 8 2 15 4 15 2 0 6 -7 10 -15z m446 0 c5 -3 7 -12 4 -20 -5 -13 -10
-13 -34 0 -16 8 -31 19 -34 24 -6 9 49 5 64 -4z m-793 -27 c-3 -7 -5 -2 -5 12
0 14 2 19 5 13 2 -7 2 -19 0 -25z m489 -13 c-6 -5 -12 -17 -14 -27 -4 -26 32
-15 39 13 l7 24 1 -23 c1 -16 5 -21 14 -16 7 4 9 3 4 -2 -5 -5 -13 -10 -18
-10 -5 -1 -11 -2 -14 -3 -3 0 -1 -10 5 -21 6 -11 16 -17 22 -14 6 4 8 3 5 -3
-4 -6 0 -13 8 -17 10 -3 15 1 15 11 0 9 3 14 6 10 4 -3 4 -17 0 -30 -6 -24 -6
-24 -41 -8 -19 9 -33 21 -31 26 5 16 -24 44 -40 38 -8 -3 -14 -12 -14 -21 0
-8 -3 -13 -6 -9 -4 3 6 34 22 67 22 48 30 57 35 43 4 -10 2 -22 -5 -28z m-601
-92 c-28 -71 -55 -141 -60 -158 -4 -16 -9 -25 -12 -19 -6 18 106 304 120 304
2 0 -19 -57 -48 -127z m682 80 c-3 -10 -5 -4 -5 12 0 17 2 24 5 18 2 -7 2 -21
0 -30z m333 17 c6 -11 8 -20 6 -20 -3 0 -10 9 -16 20 -6 11 -8 20 -6 20 3 0
10 -9 16 -20z m-1075 -97 c-14 -54 -28 -106 -31 -117 -5 -14 -3 -16 7 -11 9 6
8 1 -2 -11 -9 -10 -19 -31 -23 -45 -6 -26 -47 -49 -45 -26 1 19 18 53 18 39 1
-7 5 -10 11 -7 6 4 6 12 -1 23 -8 13 -7 30 5 67 15 48 16 48 13 13 -5 -58 8
-33 39 79 15 57 29 101 32 99 2 -2 -8 -48 -23 -103z m301 92 c-1 -9 -23 -37
-48 -63 -57 -60 -88 -105 -88 -129 1 -15 3 -14 16 7 10 17 13 18 8 5 -3 -11
-7 -26 -7 -34 0 -8 -12 -1 -29 18 -15 17 -28 28 -28 25 0 -4 -7 -1 -15 6 -21
17 -29 8 -59 -65 -14 -33 -25 -53 -26 -44 0 25 67 153 92 175 l22 19 -22 -31
c-19 -28 -20 -33 -7 -44 8 -7 15 -9 15 -4 0 5 7 1 14 -8 11 -16 15 -14 34 20
12 20 43 61 70 90 27 28 47 52 45 52 -2 0 -1 5 2 10 9 14 14 12 11 -5z m1160
-43 c-12 -11 -18 7 -10 30 l8 23 4 -23 c2 -13 1 -26 -2 -30z m-1479 16 c-3 -8
-6 -5 -6 6 -1 11 2 17 5 13 3 -3 4 -12 1 -19z m350 -31 c-28 -29 -63 -61 -77
-72 -14 -11 7 13 47 53 39 40 74 72 77 72 3 0 -18 -24 -47 -53z m985 41 c-5
-7 -17 -29 -26 -48 -10 -22 -14 -26 -10 -10 7 28 31 70 40 70 4 0 2 -6 -4 -12z
m-905 -36 c-28 -29 -147 -116 -147 -108 0 3 34 30 75 61 42 31 79 63 82 71 3
8 8 12 11 9 3 -3 -6 -18 -21 -33z m-257 -2 c-6 -11 -13 -20 -16 -20 -2 0 0 9
6 20 6 11 13 20 16 20 2 0 0 -9 -6 -20z m367 -2 c-3 -8 -6 -5 -6 6 -1 11 2 17
5 13 3 -3 4 -12 1 -19z m1428 2 c10 -11 13 -20 7 -20 -7 0 -12 5 -12 11 0 5
-5 7 -11 3 -15 -9 -5 -78 15 -109 19 -29 36 -33 30 -7 -2 9 0 24 6 32 9 13 11
13 20 0 12 -18 13 -80 2 -98 -6 -9 -12 -6 -20 13 -6 14 -16 25 -22 25 -5 0
-17 15 -26 33 -9 17 -17 33 -18 34 -1 2 -44 -4 -96 -12 -51 -9 -95 -14 -97
-11 -5 5 20 10 120 27 l67 11 0 44 c0 49 8 54 35 24z m-884 -7 c13 -16 12 -17
-3 -4 -10 7 -18 15 -18 17 0 8 8 3 21 -13z m963 -48 c4 -19 3 -25 -3 -15 -4 8
-11 29 -15 45 -4 19 -3 25 3 15 4 -8 11 -28 15 -45z m-570 20 c9 -14 15 -25
13 -25 -2 0 -13 11 -25 25 -12 14 -18 25 -13 25 5 0 16 -11 25 -25z m-935 -47
c-11 -21 -22 -38 -24 -38 -3 0 3 17 13 38 11 20 17 44 15 52 -4 13 -3 13 5 1
8 -11 5 -26 -9 -53z m-39 8 c-5 -15 -16 -29 -25 -32 -8 -3 -12 -10 -9 -15 3
-5 0 -9 -6 -9 -6 0 -21 -10 -33 -21 -53 -51 -116 -74 -132 -49 -4 7 2 9 19 4
17 -4 35 0 54 12 42 27 121 106 128 127 3 10 8 17 10 14 3 -2 0 -16 -6 -31z
m1680 9 c13 -14 21 -25 18 -25 -2 0 -15 11 -28 25 -13 14 -21 25 -18 25 2 0
15 -11 28 -25z m-1015 -25 c10 -11 16 -20 13 -20 -3 0 -13 9 -23 20 -10 11
-16 20 -13 20 3 0 13 -9 23 -20z m-775 -8 c-13 -9 -31 -24 -40 -32 -8 -8 -28
-23 -43 -33 -15 -9 -27 -24 -27 -31 0 -8 -6 -16 -14 -19 -10 -4 -12 0 -9 14 5
17 137 120 152 118 3 0 -5 -8 -19 -17z m933 -16 c-10 -11 -18 -22 -19 -24 -1
-2 -4 4 -7 12 -4 9 -3 15 1 15 19 -3 23 2 13 15 -10 12 -8 13 9 9 20 -5 20 -6
3 -27z m324 -53 c-2 -16 -4 -5 -4 22 0 28 2 40 4 28 2 -13 2 -35 0 -50z m614
5 c16 -30 4 -20 -31 25 -29 37 -30 39 -6 17 15 -14 32 -33 37 -42z m-1998 37
c-3 -9 -8 -14 -10 -11 -3 3 -2 9 2 15 9 16 15 13 8 -4z m399 8 c-6 -2 -10 -8
-7 -13 3 -4 -4 -10 -15 -13 -13 -3 -20 0 -20 8 0 8 8 16 18 18 24 6 40 7 24 0z
m2795 -50 c-3 -10 -5 -4 -5 12 0 17 2 24 5 18 2 -7 2 -21 0 -30z m-2540 5 c-3
-8 -6 -5 -6 6 -1 11 2 17 5 13 3 -3 4 -12 1 -19z m416 6 c7 -8 -3 -34 -13 -34
-4 0 -10 9 -13 20 -5 19 12 28 26 14z m167 2 c0 -3 -4 -8 -10 -11 -5 -3 -10
-1 -10 4 0 6 5 11 10 11 6 0 10 -2 10 -4z m-1350 -65 c-11 -23 -20 -53 -19
-68 1 -16 -1 -41 -4 -58 -2 -16 -2 -24 0 -17 2 6 9 12 14 12 6 0 7 -5 3 -12
-4 -7 -3 -8 4 -4 6 4 9 13 5 21 -3 9 1 15 11 15 9 0 16 -5 16 -12 0 -6 10 -3
22 8 12 10 18 13 14 7 -4 -7 -2 -21 3 -30 8 -14 11 -15 12 -3 0 8 5 2 10 -15
11 -35 3 -68 -11 -46 -5 9 -15 11 -26 7 -25 -10 -30 -8 -26 10 2 8 -4 14 -13
14 -18 0 -19 -12 -3 -28 6 -6 9 -14 6 -18 -11 -10 -43 17 -58 49 -8 18 -23 32
-32 32 -9 0 -20 4 -25 9 -5 5 -2 6 6 1 9 -5 12 -4 7 3 -4 7 -17 8 -38 1 -35
-10 -52 -5 -19 6 32 10 25 25 -11 27 l-33 1 33 4 c27 4 33 9 32 26 -3 35 0 43
10 27 5 -8 10 -24 10 -36 0 -29 49 -71 61 -53 18 29 5 55 -31 62 -24 4 -24 4
3 6 23 1 32 10 54 57 15 30 29 51 31 45 2 -5 -6 -28 -18 -50z m1708 53 c14 -3
22 -12 23 -27 0 -12 3 -16 6 -9 2 6 9 10 14 6 5 -3 6 -11 2 -17 -8 -12 -9 -17
-12 -37 -2 -18 -28 -10 -39 13 -6 12 -11 16 -11 8 -1 -10 -4 -11 -15 -2 -23
19 -26 -2 -11 -75 8 -38 13 -52 12 -31 -2 20 1 37 5 37 4 0 8 -6 8 -14 0 -8 7
-16 15 -20 13 -5 14 -2 4 15 -10 19 -9 20 11 9 28 -15 35 -8 20 22 -11 22 -10
22 4 4 19 -23 22 -61 4 -50 -7 4 -8 3 -4 -4 4 -6 14 -8 23 -5 11 4 14 3 9 -5
-5 -8 0 -12 13 -12 11 0 21 -8 23 -17 3 -10 7 -1 9 21 4 31 3 35 -7 21 -11
-15 -13 -14 -28 6 -12 17 -13 25 -4 30 7 4 15 6 19 3 4 -2 10 4 14 14 6 15 7
15 15 1 10 -17 34 -172 46 -286 6 -65 9 -73 28 -74 19 -2 19 -2 -2 -6 -16 -3
-22 -10 -18 -19 3 -9 1 -12 -4 -9 -6 3 -10 20 -10 36 0 17 -4 28 -9 25 -10 -7
-4 -102 9 -126 5 -9 32 -24 60 -31 28 -8 51 -19 50 -24 -2 -13 -25 -9 -70 11
-37 17 -106 109 -89 120 5 3 7 9 4 13 -2 5 -7 44 -11 87 -7 90 -14 110 -14 40
0 -35 -3 -45 -12 -40 -8 5 -7 0 2 -11 9 -11 10 -16 3 -11 -16 9 -16 1 -3 -24
8 -16 4 -15 -41 6 l-50 24 18 24 c15 20 19 21 29 8 9 -13 12 -12 16 6 4 13 0
23 -9 26 -10 4 -13 14 -9 31 4 15 2 25 -4 25 -6 0 -9 -3 -6 -8 2 -4 -2 -16
-10 -27 -8 -10 -14 -15 -14 -9 0 5 -5 2 -10 -6 -8 -13 -10 -12 -11 5 -1 11 -5
2 -8 -20 -6 -32 -9 -17 -15 70 -4 61 -14 148 -23 194 -17 98 -9 110 65 95z
m-1368 -8 c0 -2 -8 -10 -17 -17 -16 -13 -17 -12 -4 4 13 16 21 21 21 13z m557
-78 c-2 -18 -4 -6 -4 27 0 33 2 48 4 33 2 -15 2 -42 0 -60z m2231 -10 l-2 -93
-5 85 c-3 47 -5 88 -3 93 9 21 12 -2 10 -85z m-975 27 c14 -25 22 -45 18 -45
-4 0 -17 20 -29 45 -12 25 -20 45 -18 45 2 0 16 -20 29 -45z m-210 21 c4 -10
0 -12 -14 -9 -10 3 -16 9 -13 14 8 13 21 11 27 -5z m1390 -206 l6 -95 -14 115
c-8 63 -13 133 -13 155 1 58 15 -54 21 -175z m-2821 168 c-8 -8 -9 -4 -5 13 4
13 8 18 11 10 2 -7 -1 -18 -6 -23z m75 10 c-3 -8 -6 -5 -6 6 -1 11 2 17 5 13
3 -3 4 -12 1 -19z m-147 -58 c-7 -16 -21 -37 -33 -47 -16 -14 -15 -10 6 22 15
22 28 53 28 70 1 25 2 26 6 7 3 -13 -1 -37 -7 -52z m-320 56 c0 -2 -7 -6 -15
-10 -8 -3 -15 -1 -15 4 0 6 7 10 15 10 8 0 15 -2 15 -4z m1813 -3 c-7 -2 -19
-2 -25 0 -7 3 -2 5 12 5 14 0 19 -2 13 -5z m687 -23 c5 0 10 6 13 13 4 10 7
10 18 0 11 -11 10 -13 -4 -13 -10 0 -20 -6 -23 -13 -7 -19 35 -128 49 -126 30
4 47 -2 47 -16 0 -8 -5 -15 -11 -15 -7 0 -9 -10 -7 -25 9 -44 -13 -15 -52 69
-21 45 -41 99 -44 121 -3 22 -3 32 0 23 3 -10 9 -18 14 -18z m174 -75 c9 -44
19 -90 22 -102 2 -14 14 -25 30 -29 14 -4 23 -9 20 -12 -3 -2 -1 -13 5 -23 6
-13 6 -19 -1 -19 -5 0 -10 -4 -10 -10 0 -5 6 -10 14 -10 8 0 18 -9 21 -20 3
-11 11 -20 16 -20 6 0 4 10 -3 23 -6 12 -12 30 -13 39 -1 13 2 15 16 7 28 -15
30 -11 10 24 -10 17 -24 50 -31 72 -7 22 -16 44 -21 50 -13 13 -11 27 3 19 8
-5 9 0 5 15 -7 28 -1 26 88 -28 78 -48 161 -76 169 -58 2 7 5 4 5 -5 1 -10 18
-26 39 -37 42 -22 106 -87 97 -100 -2 -5 2 -14 10 -21 19 -16 9 -33 -13 -21
-10 5 -33 31 -52 58 l-35 48 45 -34 45 -35 -32 35 c-35 37 -102 82 -88 58 5
-8 24 -38 42 -67 19 -29 31 -58 27 -65 -4 -6 -4 -9 1 -5 4 4 21 -12 36 -35 16
-23 40 -59 55 -80 35 -53 41 -40 9 23 l-26 51 25 -16 c14 -9 28 -30 31 -46 4
-16 12 -32 20 -36 7 -5 16 -27 20 -50 6 -36 4 -43 -9 -43 -9 0 -16 -7 -16 -16
0 -8 4 -13 8 -10 5 3 7 -9 4 -27 -3 -25 -1 -29 8 -17 9 12 10 9 8 -14 -6 -57
-25 -36 -56 61 -17 54 -31 88 -32 75 0 -16 -4 -21 -12 -16 -9 5 -9 2 1 -9 17
-22 3 -22 -20 -1 -17 15 -18 15 -7 -14 7 -17 15 -29 19 -26 4 2 6 -4 4 -13 -2
-10 -4 -18 -5 -18 -1 0 -4 -26 -7 -57 -3 -44 -1 -57 9 -55 7 2 10 2 6 0 -5 -3
-8 -27 -8 -54 0 -37 -4 -49 -15 -49 -9 0 -15 10 -16 23 0 12 -3 58 -6 102 -3
44 -5 108 -4 142 1 46 -3 70 -16 90 -10 15 -12 24 -5 20 7 -5 12 -3 12 3 0 6
-6 13 -13 16 -7 2 -26 29 -43 59 -30 56 -51 75 -34 30 7 -20 6 -25 -5 -25 -11
0 -15 12 -16 43 -1 23 -4 32 -6 20 -3 -15 -9 -20 -19 -16 -10 4 -15 0 -14 -8
4 -25 -1 -64 -7 -51 -2 6 -9 10 -14 6 -5 -3 -9 4 -9 16 0 11 -6 23 -13 26 -15
5 -19 34 -6 34 5 0 7 13 6 30 -1 16 -6 30 -10 30 -5 0 -6 4 -3 9 3 5 -1 25 -9
44 -8 19 -11 38 -7 42 4 5 1 5 -5 1 -7 -4 -13 -3 -13 2 0 5 -9 12 -20 15 -17
4 -18 3 -8 -16 7 -12 11 -26 10 -30 -1 -5 7 -11 18 -14 11 -3 20 -10 20 -15 0
-5 -5 -6 -10 -3 -7 4 -8 -10 -4 -42 4 -26 6 -58 5 -70 0 -13 4 -23 9 -23 6 0
10 -4 10 -10 0 -5 -9 -10 -20 -10 -22 0 -27 -16 -7 -23 9 -3 9 -9 1 -23 -18
-30 -29 -26 -28 11 1 19 -2 33 -6 30 -5 -3 -11 -1 -15 5 -4 6 -11 8 -16 5 -5
-4 -5 4 1 19 7 20 6 26 -4 26 -8 0 -16 -4 -18 -10 -1 -5 -25 10 -51 33 -47 41
-49 44 -67 137 -10 52 -26 117 -34 144 -12 38 -12 46 -2 35 8 -8 21 -50 30
-94z m-2721 75 c-3 -12 -8 -19 -11 -16 -5 6 5 36 12 36 2 0 2 -9 -1 -20z m307
16 c0 -2 -7 -9 -15 -16 -13 -11 -14 -10 -9 4 5 14 24 23 24 12z m1494 -54 c8
-26 17 -63 20 -82 5 -29 4 -31 -4 -12 -6 14 -14 20 -22 16 -8 -5 -9 -2 -5 10
8 19 -10 92 -26 114 -7 9 -6 11 6 6 9 -3 23 -27 31 -52z m-1277 1 c-3 -10 -5
-2 -5 17 0 19 2 27 5 18 2 -10 2 -26 0 -35z m-391 9 c-17 -16 -18 -16 -5 5 7
12 15 20 18 17 3 -2 -3 -12 -13 -22z m1825 2 c11 -14 10 -15 -11 -12 -13 1
-25 9 -28 16 -5 17 23 15 39 -4z m-1264 -26 c-3 -7 -5 -2 -5 12 0 14 2 19 5
13 2 -7 2 -19 0 -25z m1178 21 c12 -19 -5 -23 -22 -6 -16 16 -16 17 -1 17 9 0
20 -5 23 -11z m167 1 c55 -16 57 -31 4 -24 -26 4 -46 5 -46 2 0 -22 25 -68 37
-68 9 0 13 -6 10 -15 -8 -19 9 -28 47 -27 17 1 41 -3 53 -10 18 -9 20 -14 12
-31 -7 -13 -8 -17 -1 -13 6 3 13 2 17 -4 3 -5 2 -10 -3 -10 -5 0 -8 -18 -6
-41 1 -22 -1 -51 -6 -62 -8 -20 -9 -19 -9 9 -1 37 -10 48 -28 32 -21 -17 -28
0 -9 21 23 25 13 41 -24 41 -21 0 -28 5 -28 18 1 9 -14 41 -32 70 -18 29 -33
66 -33 82 0 17 -5 27 -10 23 -6 -3 -7 -1 -3 5 9 14 11 15 58 2z m-2326 -9 c-6
-9 -46 -22 -46 -15 0 3 10 9 23 14 29 11 29 11 23 1z m327 -21 c3 -11 1 -20
-4 -20 -5 0 -9 9 -9 20 0 11 2 20 4 20 2 0 6 -9 9 -20z m2122 10 c4 -6 -7 -10
-24 -10 -17 0 -31 5 -31 10 0 6 11 10 24 10 14 0 28 -4 31 -10z m-1628 -42
c-3 -7 -5 -2 -5 12 0 14 2 19 5 13 2 -7 2 -19 0 -25z m672 15 c-31 -42 -64
-73 -76 -73 -13 0 -7 7 54 73 9 9 21 17 26 17 5 0 3 -8 -4 -17z m755 11 c9 -3
16 -12 16 -20 0 -10 -6 -11 -30 -2 -17 5 -33 14 -36 19 -6 10 26 12 50 3z
m-107 -77 c-9 -5 -7 -10 6 -18 23 -13 22 -29 -2 -29 -26 0 -31 19 -18 76 l10
49 8 -35 c5 -23 4 -37 -4 -43z m313 69 c0 -9 -40 -13 -46 -5 -3 5 6 9 20 9 14
0 26 -2 26 -4z m66 -21 c13 -13 13 -15 1 -15 -8 0 -20 7 -27 15 -9 11 -10 15
-1 15 7 0 19 -7 27 -15z m-1353 -42 c-5 -12 -7 -12 -14 -1 -5 7 -9 22 -9 33 1
19 1 19 15 2 7 -11 11 -26 8 -34z m1067 -3 c0 -22 6 -33 23 -40 16 -6 17 -9 5
-9 -9 -1 -20 4 -23 9 -4 6 -10 8 -14 6 -4 -3 -8 0 -8 7 0 7 -3 22 -7 35 -6 16
-3 22 8 22 11 0 16 -9 16 -30z m828 12 c2 -7 -2 -10 -12 -6 -9 3 -16 11 -16
16 0 13 23 5 28 -10z m-2668 -20 c-5 -10 -14 -33 -20 -52 l-10 -35 6 38 c4 29
1 39 -12 44 -16 6 -16 7 1 19 23 17 47 8 35 -14z m437 -4 c-3 -7 -5 -2 -5 12
0 14 2 19 5 13 2 -7 2 -19 0 -25z m707 -49 c-98 -101 -101 -91 -6 18 30 34 59
60 64 57 5 -3 -22 -37 -58 -75z m-342 37 c-9 -5 -23 -17 -30 -25 -11 -13 -11
-12 -1 9 20 43 31 53 40 38 5 -8 2 -16 -9 -22z m120 -6 c-9 -22 -20 -40 -24
-40 -9 0 1 27 20 58 21 33 23 27 4 -18z m782 24 c9 -23 7 -36 -3 -30 -12 8
-21 46 -11 46 4 0 11 -7 14 -16z m93 -31 c-3 -10 -5 -2 -5 17 0 19 2 27 5 18
2 -10 2 -26 0 -35z m-2066 -10 c-12 -20 -14 -14 -5 12 4 9 9 14 11 11 3 -2 0
-13 -6 -23z m2540 16 c-13 -5 -65 -11 -115 -14 l-91 -4 85 13 c47 7 99 13 115
14 29 1 29 0 6 -9z m-551 -35 c0 -8 -5 -12 -10 -9 -6 4 -8 11 -5 16 9 14 15
11 15 -7z m-1775 -4 c3 -5 1 -10 -4 -10 -6 0 -11 5 -11 10 0 6 2 10 4 10 3 0
8 -4 11 -10z m2220 -30 c8 -16 15 -37 14 -47 0 -16 -36 49 -38 70 -2 16 9 6
24 -23z m34 -25 c0 -5 -6 1 -14 15 -8 14 -14 30 -14 35 0 6 6 -1 14 -15 8 -14
14 -29 14 -35z m26 25 c17 -33 19 -44 6 -36 -10 6 -33 66 -26 66 3 0 11 -13
20 -30z m-2395 10 c0 -5 -2 -10 -4 -10 -3 0 -8 5 -11 10 -3 6 -1 10 4 10 6 0
11 -4 11 -10z m190 -12 c0 -16 -3 -19 -11 -11 -6 6 -8 16 -5 22 11 17 16 13
16 -11z m815 -42 c-25 -35 -42 -66 -39 -69 6 -5 -80 -97 -91 -97 -8 0 -1 11
69 105 95 128 138 171 61 61z m1277 39 c3 -13 2 -24 -1 -23 -18 2 -21 -4 -10
-24 12 -23 12 -23 -10 -4 -16 15 -18 21 -9 27 7 5 14 13 14 19 1 5 2 15 3 20
2 18 9 11 13 -15z m-2174 -50 c-8 -7 -9 -4 -4 10 7 18 6 19 -9 4 -17 -17 -65
-14 -65 3 0 5 9 7 19 3 14 -4 25 2 38 19 l18 24 7 -26 c5 -16 3 -31 -4 -37z
m1842 44 c0 -6 -4 -7 -10 -4 -5 3 -10 11 -10 16 0 6 5 7 10 4 6 -3 10 -11 10
-16z m-1795 -9 c-3 -4 1 -11 7 -13 8 -3 6 -6 -4 -6 -12 -1 -18 6 -18 20 0 11
5 17 10 14 6 -4 8 -10 5 -15z m1175 6 c0 -2 -8 -10 -17 -17 -16 -13 -17 -12
-4 4 13 16 21 21 21 13z m680 -31 c0 -13 4 -26 10 -30 5 -3 6 -13 3 -22 -6
-14 -7 -14 -13 3 -16 44 -22 87 -11 80 6 -4 11 -18 11 -31z m63 -12 c4 -19 2
-33 -3 -33 -6 0 -10 8 -10 18 0 9 -3 28 -6 42 -5 17 -3 22 3 15 6 -5 13 -25
16 -42z m-363 29 c0 -5 -7 -9 -15 -9 -8 0 -12 4 -9 9 3 4 9 8 15 8 5 0 9 -4 9
-8z m247 -34 c-3 -7 -5 -2 -5 12 0 14 2 19 5 13 2 -7 2 -19 0 -25z m353 12 c0
-5 -2 -10 -4 -10 -3 0 -8 5 -11 10 -3 6 -1 10 4 10 6 0 11 -4 11 -10z m-1733
-37 c-3 -10 -5 -4 -5 12 0 17 2 24 5 18 2 -7 2 -21 0 -30z m2760 -15 c-2 -13
-4 -5 -4 17 -1 22 1 32 4 23 2 -10 2 -28 0 -40z m-3234 12 c3 -11 1 -18 -4
-14 -5 3 -9 12 -9 20 0 20 7 17 13 -6z m1440 9 c-9 -9 -4 -17 20 -33 44 -30
71 -40 64 -24 -6 17 48 21 62 4 21 -25 40 -134 30 -171 -6 -20 -14 -33 -19
-30 -5 3 -11 1 -15 -5 -4 -6 -10 -8 -15 -5 -12 8 -20 -23 -21 -84 -3 -91 -19
-66 -21 31 -1 65 -3 80 -7 52 -5 -38 -8 -41 -28 -33 -13 5 -23 15 -23 23 0 8
-10 22 -22 30 -22 16 -23 15 -34 -21 -8 -24 -12 -30 -13 -17 -1 28 -30 26 -37
-3 -4 -12 -9 -23 -13 -23 -3 0 -7 -13 -8 -29 -2 -21 5 -34 22 -45 17 -12 25
-25 24 -44 -2 -24 -2 -25 -6 -4 -3 15 -10 22 -19 18 -18 -7 -30 18 -37 74 -3
25 -7 52 -8 60 -1 8 -5 -3 -9 -25 l-7 -40 -1 35 c-1 19 5 66 13 105 8 38 15
75 15 82 0 7 -18 20 -41 30 l-41 18 23 20 c12 11 19 14 15 7 -6 -10 3 -11 36
-7 33 3 37 3 18 -4 l-25 -9 25 -1 c18 -1 38 12 65 39 21 22 41 40 44 40 3 0 0
-5 -6 -11z m626 -47 c-12 -28 -28 -53 -36 -56 -10 -4 -8 3 6 23 12 16 21 31
21 34 0 14 21 59 25 55 3 -3 -4 -28 -16 -56z m321 46 c-30 -5 -63 -14 -72 -19
-13 -7 -18 -5 -18 5 0 15 36 22 110 23 25 0 19 -2 -20 -9z m-1382 -45 c-19
-27 -62 -86 -95 -133 -34 -47 -71 -94 -83 -105 l-23 -20 13 25 c7 14 26 41 41
60 16 19 60 77 99 128 73 95 107 128 48 45z m1281 33 c-10 -10 -138 -15 -144
-6 -4 6 22 10 71 10 43 0 75 -2 73 -4z m-301 -25 c3 -8 -1 -12 -9 -9 -7 2 -15
10 -17 17 -3 8 1 12 9 9 7 -2 15 -10 17 -17z m-1983 -9 c-3 -3 -11 0 -18 7 -9
10 -8 11 6 5 10 -3 15 -9 12 -12z m2455 8 c0 -12 -47 -20 -132 -23 -37 -1 -68
-5 -68 -9 0 -12 -78 -10 -85 2 -4 6 11 10 37 11 24 0 52 2 63 4 11 2 49 7 85
11 36 3 67 8 69 10 8 8 31 4 31 -6z m-462 -43 c5 -24 -15 -21 -28 4 -10 18 -9
20 7 17 10 -2 19 -11 21 -21z m136 8 c19 -14 19 -15 -7 -15 -15 0 -27 -6 -28
-12 0 -7 -4 -4 -8 7 -15 36 8 46 43 20z m-272 -33 c5 -18 16 -36 24 -39 22 -8
27 2 14 26 -6 12 -7 21 -2 21 5 0 15 -11 22 -25 8 -14 24 -28 37 -31 22 -6 23
-7 6 -21 -16 -13 -15 -13 16 -7 33 6 34 6 28 -24 -4 -22 -2 -32 9 -36 8 -3 12
-10 9 -16 -4 -6 6 -10 23 -10 18 0 32 -6 36 -16 3 -8 10 -12 16 -9 5 3 11 0
11 -7 1 -7 5 1 9 17 7 28 8 29 9 5 1 -18 11 -32 34 -45 25 -15 28 -20 15 -23
-11 -2 -18 -13 -18 -27 0 -29 -18 -43 -51 -39 -19 3 -29 -2 -38 -18 -6 -13 -9
-15 -7 -5 6 19 5 20 -18 11 -9 -3 -16 -14 -17 -23 0 -10 -2 -11 -6 -3 -2 6
-11 12 -19 12 -8 0 -14 7 -14 15 0 8 -4 15 -9 15 -11 0 -21 -35 -21 -74 0 -24
2 -27 15 -16 8 7 15 22 16 34 0 20 1 20 8 1 5 -11 7 -23 4 -27 -2 -5 1 -8 7
-8 16 0 37 -23 33 -36 -2 -7 16 -12 53 -12 47 0 57 3 61 19 3 10 10 19 15 19
5 0 6 -5 3 -10 -4 -6 -8 -21 -11 -34 -4 -22 -1 -24 31 -21 19 2 37 -1 40 -6 4
-5 26 -9 50 -9 24 0 47 -5 51 -11 5 -8 -1 -10 -19 -7 -23 5 -25 3 -16 -14 9
-17 8 -19 -11 -13 -12 4 -27 1 -36 -6 -14 -11 -15 -10 -12 11 2 19 -2 24 -24
27 -17 2 -28 -1 -28 -8 0 -6 7 -9 15 -5 10 4 15 -1 15 -14 0 -11 -6 -20 -12
-21 -45 -4 -54 -3 -60 6 -5 6 -12 4 -18 -5 -8 -12 -10 -10 -8 10 3 20 -2 24
-24 26 -15 2 -29 -3 -32 -12 -13 -34 -64 -5 -62 35 1 13 -5 26 -11 28 -8 3
-13 -4 -13 -19 -1 -37 -35 48 -43 105 -4 27 -10 54 -14 60 -4 7 -6 20 -5 30 8
46 -69 -7 -102 -71 -24 -46 -24 -47 -31 -20 -10 38 0 109 16 119 13 8 10 10
-39 25 -15 4 -31 44 -25 61 4 9 10 10 24 3 10 -6 30 -8 44 -4 22 5 26 2 31
-24 4 -17 14 -33 23 -35 10 -3 8 -5 -7 -6 -13 0 -20 -5 -17 -11 7 -11 78 -14
88 -4 9 10 -4 34 -16 27 -6 -4 -7 4 -3 23 4 16 13 32 19 36 9 6 9 8 0 8 -8 0
-13 14 -13 35 0 36 -3 38 -52 49 -19 4 -34 19 -48 46 -27 53 -26 62 12 58 27
-2 33 -8 40 -36z m-162 -41 c20 -38 8 -541 -13 -541 -6 0 -8 28 -4 75 6 63 4
73 -8 69 -17 -7 -17 -10 -18 216 -1 146 6 200 23 200 5 0 14 -9 20 -19z m-691
-67 c-24 -37 -45 -61 -47 -55 -4 13 17 49 57 97 42 50 37 30 -10 -42z m1516
26 c10 -11 16 -20 13 -20 -3 0 -13 9 -23 20 -10 11 -16 20 -13 20 3 0 13 -9
23 -20z m-2157 -15 c-3 -3 -9 2 -12 12 -6 14 -5 15 5 6 7 -7 10 -15 7 -18z
m1862 -4 c0 -4 -9 -7 -20 -7 -11 0 -20 6 -20 12 0 7 8 10 20 7 11 -3 20 -8 20
-12z m-1890 -20 c-6 -12 -9 -21 -6 -21 3 0 -1 -12 -9 -27 -8 -15 -11 -31 -8
-37 3 -6 2 -7 -2 -3 -5 4 -17 -7 -27 -25 -15 -27 -18 -28 -13 -8 8 33 67 151
72 146 3 -2 0 -14 -7 -25z m1757 -18 c-3 -10 -5 -2 -5 17 0 19 2 27 5 18 2
-10 2 -26 0 -35z m-1554 7 c-3 -12 -8 -19 -11 -16 -5 6 5 36 12 36 2 0 2 -9
-1 -20z m1247 -23 c13 -5 13 -6 -1 -6 -9 -1 -24 9 -35 22 -19 22 -19 22 1 6
11 -9 27 -19 35 -22z m25 23 c3 -5 1 -10 -4 -10 -6 0 -11 5 -11 10 0 6 2 10 4
10 3 0 8 -4 11 -10z m-1325 -13 c0 -8 -7 -14 -15 -14 -11 0 -12 4 -4 14 6 7
13 13 15 13 2 0 4 -6 4 -13z m1765 -17 c-3 -4 1 -11 7 -13 8 -4 7 -6 -3 -6
-17 -1 -32 22 -22 33 8 8 24 -4 18 -14z m-1538 -23 c-2 -7 0 -23 5 -37 11 -30
1 -133 -13 -125 -5 4 -9 2 -9 -3 0 -16 -33 -24 -42 -10 -10 17 -10 31 0 24 19
-11 50 92 46 151 -1 12 3 20 8 17 5 -3 7 -11 5 -17z m728 3 c0 -7 -6 -15 -12
-17 -8 -3 -13 4 -13 17 0 13 5 20 13 18 6 -3 12 -11 12 -18z m-680 1 c3 -6 -4
-9 -15 -8 -11 1 -20 5 -20 9 0 11 28 10 35 -1z m1487 -58 c17 6 48 -11 48 -26
0 -7 14 -21 31 -31 25 -15 28 -20 18 -33 -7 -8 -23 -13 -36 -10 -26 5 -39 -7
-46 -43 -3 -19 -5 -16 -6 12 -1 38 -20 64 -22 31 -1 -17 -2 -17 -6 0 -4 14
-27 22 -55 18 -4 0 -6 13 -6 29 1 24 4 28 18 20 14 -8 17 -5 14 15 -1 14 2 25
7 25 5 0 9 8 10 18 0 12 3 11 10 -6 5 -13 15 -22 21 -19z m211 -14 c7 -26 -18
-13 -31 16 -11 23 -10 24 8 13 10 -7 21 -20 23 -29z m654 19 c-3 -8 -6 -5 -6
6 -1 11 2 17 5 13 3 -3 4 -12 1 -19z m-2353 3 c3 -5 -1 -14 -8 -20 -12 -10
-14 -9 -11 6 2 10 4 19 4 21 2 5 10 2 15 -7z m127 -18 c-8 -15 -10 -15 -11 -2
0 17 10 32 18 25 2 -3 -1 -13 -7 -23z m1509 5 c0 -6 -12 -8 -31 -4 -17 3 -40
6 -50 6 -11 0 -19 3 -19 8 0 4 22 5 50 4 27 -2 50 -9 50 -14z m-2082 -12 c1
-13 -5 -27 -13 -30 -18 -6 -18 -5 -5 28 12 32 15 32 18 2z m2568 6 c-2 -4 4
-26 15 -47 11 -22 17 -32 15 -23 -3 9 2 19 10 22 16 6 42 -40 37 -66 -3 -10 0
-18 5 -18 5 0 14 -12 21 -27 12 -26 14 -27 26 -10 11 15 13 6 16 -67 4 -72 7
-88 28 -110 40 -43 59 -119 71 -280 5 -82 8 -152 5 -154 -3 -3 -5 10 -5 29
l-1 34 -14 -40 c-8 -22 -15 -41 -15 -43 0 -2 -5 0 -10 3 -6 4 -8 11 -5 16 4 5
1 9 -4 9 -6 0 -11 -21 -12 -47 -1 -38 -3 -42 -8 -23 -4 14 -4 38 1 55 4 16 7
59 6 95 -1 63 -1 64 -8 20 l-7 -45 -3 55 c-1 30 -1 68 0 84 1 19 -2 26 -10 21
-7 -5 -10 -26 -7 -60 4 -48 -17 -219 -23 -185 -1 8 -4 60 -5 115 -3 165 -3
165 -20 159 -9 -4 -15 0 -15 10 0 9 5 16 10 16 6 0 10 16 10 36 0 19 3 33 8
31 4 -3 8 9 8 26 1 18 5 47 8 66 8 46 -14 78 -60 87 -32 6 -39 3 -67 -27 -17
-19 -28 -26 -24 -17 3 10 2 20 -2 23 -15 9 -23 -46 -22 -157 1 -100 0 -108
-18 -108 -11 0 -21 8 -24 18 -3 14 -6 13 -14 -7 -8 -21 -11 -16 -16 39 -13
119 -3 237 29 343 5 15 -3 17 -58 19 -53 1 -56 2 -18 5 25 3 49 11 53 19 4 8
15 14 23 14 8 0 12 -4 9 -10 -3 -5 -4 -10 -2 -10 2 0 21 27 42 60 21 33 40 60
42 60 2 0 2 -4 -1 -8z m354 -23 c0 -22 -21 -21 -28 1 -3 8 0 10 8 5 10 -6 12
-4 7 9 -4 10 -3 15 3 11 6 -3 10 -15 10 -26z m-1642 -26 c-1 -16 8 -54 20 -86
24 -62 28 -102 12 -112 -5 -3 -10 -21 -10 -38 -1 -30 -2 -31 -15 -13 -10 14
-22 17 -44 13 -20 -4 -33 -1 -42 10 -11 13 -10 18 10 34 13 11 21 22 18 26 -4
3 -13 0 -22 -7 -17 -14 -19 -8 -6 18 5 9 12 26 16 37 5 15 8 16 14 6 5 -8 11
11 15 48 4 35 11 59 17 56 5 -4 9 3 9 14 0 12 2 21 5 21 3 0 4 -12 3 -27z
m-95 -8 c-19 -26 -38 -32 -48 -15 -3 5 0 7 8 5 7 -3 22 3 32 15 25 28 30 25 8
-5z m373 -42 c-16 -31 -59 -44 -49 -15 3 9 13 25 21 35 12 13 17 15 24 5 5 -9
8 -5 9 12 1 16 3 19 6 8 2 -9 -2 -29 -11 -45z m-1826 22 c69 -8 144 -15 168
-17 29 -1 42 -6 42 -16 0 -11 -10 -13 -42 -9 -24 3 -114 14 -200 23 -87 10
-158 21 -158 26 0 12 47 10 190 -7z m913 8 c-7 -2 -13 -12 -13 -21 0 -15 -2
-15 -10 -2 -9 15 4 30 25 29 6 0 4 -3 -2 -6z m4 -35 c-3 -8 -6 -5 -6 6 -1 11
2 17 5 13 3 -3 4 -12 1 -19z m-667 -4 c0 -2 -7 -4 -15 -4 -8 0 -15 4 -15 10 0
5 7 7 15 4 8 -4 15 -8 15 -10z m32 -42 c8 -9 7 -11 -6 -6 -10 4 -16 17 -15 38
2 27 2 28 6 6 3 -14 10 -31 15 -38z m2944 -34 l3 -53 -8 45 c-4 25 -13 56 -20
70 -13 24 -12 24 4 8 12 -11 19 -35 21 -70z m-629 15 c-3 -10 -5 -4 -5 12 0
17 2 24 5 18 2 -7 2 -21 0 -30z m-1637 23 c0 -3 -4 -8 -10 -11 -5 -3 -10 -1
-10 4 0 6 5 11 10 11 6 0 10 -2 10 -4z m1120 0 c0 -3 -4 -8 -10 -11 -5 -3 -10
-1 -10 4 0 6 5 11 10 11 6 0 10 -2 10 -4z m1067 -88 c-2 -18 -4 -6 -4 27 0 33
2 48 4 33 2 -15 2 -42 0 -60z m-1286 54 c-7 -2 -18 1 -23 6 -8 8 -4 9 13 5 13
-4 18 -8 10 -11z m459 8 c0 -5 -5 -10 -11 -10 -5 0 -7 5 -4 10 3 6 8 10 11 10
2 0 4 -4 4 -10z m730 0 c0 -5 -2 -10 -4 -10 -3 0 -8 5 -11 10 -3 6 -1 10 4 10
6 0 11 -4 11 -10z m-2775 -18 c-3 -3 -11 0 -18 7 -9 10 -8 11 6 5 10 -3 15 -9
12 -12z m273 11 c-10 -2 -28 -2 -40 0 -13 2 -5 4 17 4 22 1 32 -1 23 -4z
m1339 -38 c-4 -8 -12 -15 -19 -14 -10 0 -10 2 0 6 6 2 12 12 12 21 0 8 3 13 6
9 4 -3 4 -13 1 -22z m1160 3 c-3 -8 -6 -5 -6 6 -1 11 2 17 5 13 3 -3 4 -12 1
-19z m-460 -35 c-3 -10 -5 -2 -5 17 0 19 2 27 5 18 2 -10 2 -26 0 -35z m-1452
25 c14 -6 25 -17 25 -25 0 -10 -6 -8 -22 7 -12 11 -29 20 -37 20 -10 0 -3 -11
19 -29 19 -16 37 -28 40 -26 3 2 5 -17 4 -42 -1 -37 -7 -51 -28 -70 -15 -13
-32 -23 -39 -23 -7 0 0 8 15 17 62 39 57 106 -11 136 -21 9 -44 17 -52 18 -8
0 0 7 16 14 37 17 39 18 70 3z m675 -26 c0 -15 -2 -15 -10 -2 -5 8 -14 16 -20
16 -20 3 -21 4 -15 14 9 15 45 -7 45 -28z m-827 6 c-11 -13 -19 -28 -16 -34 2
-6 -3 -11 -12 -11 -22 0 -19 14 10 42 30 31 46 33 18 3z m210 -31 c-3 -6 -1
-7 5 -3 14 9 32 -33 32 -75 0 -25 -4 -29 -27 -29 -28 0 -28 0 -28 69 0 54 3
67 12 59 7 -6 10 -15 6 -21z m-183 19 c0 -3 -4 -8 -10 -11 -5 -3 -10 -1 -10 4
0 6 5 11 10 11 6 0 10 -2 10 -4z m2227 -73 c-2 -16 -4 -3 -4 27 0 30 2 43 4
28 2 -16 2 -40 0 -55z m-364 37 c3 -11 1 -20 -4 -20 -5 0 -9 9 -9 20 0 11 2
20 4 20 2 0 6 -9 9 -20z m264 -2 c-3 -8 -6 -5 -6 6 -1 11 2 17 5 13 3 -3 4
-12 1 -19z m-3036 -5 c11 -15 11 -16 -1 -5 -8 6 -21 12 -29 12 -13 0 -13 -2
-3 -9 9 -5 3 -8 -17 -7 -51 2 -35 17 25 25 6 0 18 -7 25 -16z m983 -4 c14 -11
26 -27 26 -34 0 -9 -9 -5 -25 10 -13 14 -31 25 -40 25 -9 0 -13 5 -10 10 9 15
19 12 49 -11z m1241 11 c3 -5 -1 -10 -10 -10 -9 0 -13 5 -10 10 3 6 8 10 10
10 2 0 7 -4 10 -10z m-305 -36 c0 -14 -4 -23 -9 -20 -5 3 -7 15 -4 26 7 28 13
25 13 -6z m97 -10 c-9 -9 -28 6 -21 18 4 6 10 6 17 -1 6 -6 8 -13 4 -17z
m1010 -16 c-3 -8 -6 -5 -6 6 -1 11 2 17 5 13 3 -3 4 -12 1 -19z m-872 -9 c-10
-15 -25 -10 -19 6 4 8 10 12 15 9 5 -3 7 -10 4 -15z m-605 -4 c0 -8 -4 -15
-10 -15 -5 0 -7 7 -4 15 4 8 8 15 10 15 2 0 4 -7 4 -15z m23 -10 c-3 -9 -8
-14 -10 -11 -3 3 -2 9 2 15 9 16 15 13 8 -4z m1484 -7 c-3 -8 -6 -5 -6 6 -1
11 2 17 5 13 3 -3 4 -12 1 -19z m-1423 -3 c-4 -8 -11 -15 -16 -15 -6 0 -5 6 2
15 7 8 14 15 16 15 2 0 1 -7 -2 -15z m-2227 -17 c-3 -8 -6 -5 -6 6 -1 11 2 17
5 13 3 -3 4 -12 1 -19z m1672 -17 c-3 -6 -10 -7 -18 -2 -7 5 -10 14 -6 21 9
14 29 -2 24 -19z m30 -3 c-9 -20 -64 -58 -83 -58 -2 0 -9 14 -15 30 -9 28 -8
30 13 30 12 0 27 -5 34 -12 8 -8 15 -8 26 2 9 7 14 16 11 20 -3 5 1 10 7 13
19 6 20 2 7 -25z m861 16 c0 -8 -4 -12 -10 -9 -5 3 -10 10 -10 16 0 5 5 9 10
9 6 0 10 -7 10 -16z m-749 -65 l-11 -34 3 38 c2 20 0 37 -4 37 -4 0 -10 8 -13
18 -6 14 -3 13 14 -4 19 -18 20 -25 11 -55z m1836 -6 c-2 -16 -4 -3 -4 27 0
30 2 43 4 28 2 -16 2 -40 0 -55z m-1117 51 c0 -8 -4 -12 -10 -9 -5 3 -10 10
-10 16 0 5 5 9 10 9 6 0 10 -7 10 -16z m1207 -6 c-3 -8 -6 -5 -6 6 -1 11 2 17
5 13 3 -3 4 -12 1 -19z m-1135 -10 c-7 -7 -12 -8 -12 -2 0 14 12 26 19 19 2
-3 -1 -11 -7 -17z m-692 -75 c0 -7 5 -13 11 -13 6 0 20 -11 31 -25 11 -14 24
-22 30 -19 6 4 9 1 6 -7 -5 -12 17 -45 75 -113 10 -11 16 -16 13 -9 -4 6 -2
14 4 18 6 4 10 -7 10 -27 0 -18 9 -46 20 -63 26 -40 26 -96 -1 -126 l-21 -24
16 25 c28 43 16 100 -41 187 l-15 22 -25 -29 c-27 -33 -43 -38 -43 -15 0 8 -7
15 -16 15 -8 0 -13 4 -9 9 5 8 -21 37 -84 95 -22 20 -21 36 1 19 20 -15 64
-25 50 -11 -7 7 -8 16 -3 22 5 6 5 20 1 31 -7 18 -8 19 -15 3 -4 -10 -13 -18
-21 -18 -11 0 -11 5 -2 25 10 22 8 29 -15 53 -38 40 -33 48 8 15 19 -15 35
-34 35 -40z m824 52 c-4 -8 -8 -15 -10 -15 -2 0 -4 7 -4 15 0 8 4 15 10 15 5
0 7 -7 4 -15z m-987 -9 c-3 -7 6 -25 19 -39 29 -32 32 -47 4 -22 -11 10 -20
14 -20 10 0 -5 -6 0 -14 10 -10 15 -11 23 -2 37 13 21 20 24 13 4z m938 -6
c-19 -21 -40 -26 -49 -11 -4 5 2 7 12 4 10 -2 24 3 31 11 8 9 16 16 19 16 3 0
-3 -9 -13 -20z m-584 -13 c-10 -9 -11 -8 -5 6 3 10 9 15 12 12 3 -3 0 -11 -7
-18z m1266 17 c-3 -3 -12 -4 -19 -1 -8 3 -5 6 6 6 11 1 17 -2 13 -5z m-46 -32
c7 -18 5 -22 -11 -22 -15 0 -20 7 -20 26 0 30 19 28 31 -4z m-1641 -4 c0 -16
-3 -19 -11 -11 -6 6 -8 16 -5 22 11 17 16 13 16 -11z m2067 -10 c-3 -7 -5 -2
-5 12 0 14 2 19 5 13 2 -7 2 -19 0 -25z m-2105 0 c-7 -7 -12 -8 -12 -2 0 6 3
14 7 17 3 4 9 5 12 2 2 -3 -1 -11 -7 -17z m1716 -35 c-4 -20 -45 -30 -60 -15
-16 16 1 32 33 32 24 0 30 -4 27 -17z m389 -30 c-3 -10 -5 -2 -5 17 0 19 2 27
5 18 2 -10 2 -26 0 -35z m-317 27 c0 -5 -5 -10 -11 -10 -5 0 -7 5 -4 10 3 6 8
10 11 10 2 0 4 -4 4 -10z m207 -22 c-3 -7 -5 -2 -5 12 0 14 2 19 5 13 2 -7 2
-19 0 -25z m-1859 -3 c-3 -3 -9 2 -12 12 -6 14 -5 15 5 6 7 -7 10 -15 7 -18z
m795 -2 c-7 -2 -21 -2 -30 0 -10 3 -4 5 12 5 17 0 24 -2 18 -5z m-871 -17 c3
5 3 3 1 -5 -2 -8 4 -22 13 -32 10 -11 14 -27 11 -40 -4 -14 7 -50 28 -96 24
-53 30 -73 20 -73 -8 0 -19 18 -26 43 -6 23 -22 68 -35 100 -14 32 -22 62 -19
68 4 5 0 12 -9 15 -8 3 -12 12 -9 21 4 11 8 11 13 3 4 -7 10 -8 12 -4z m1572
-7 c-3 -5 -10 -7 -15 -3 -5 3 -7 10 -3 15 3 5 10 7 15 3 5 -3 7 -10 3 -15z
m-26 -69 c0 -8 -6 1 -13 20 -7 19 -13 42 -13 50 0 8 6 -1 13 -20 7 -19 13 -42
13 -50z m137 70 c-3 -5 -12 -10 -18 -10 -7 0 -6 4 3 10 19 12 23 12 15 0z
m-1632 -30 c-7 -28 -13 -25 -13 6 0 14 4 23 9 20 5 -3 7 -15 4 -26z m954 24
c-3 -3 -12 -4 -19 -1 -8 3 -5 6 6 6 11 1 17 -2 13 -5z m-57 -29 c-7 -8 -22
-15 -34 -15 -20 0 -19 1 4 14 34 19 45 19 30 1z m-799 -32 c13 -16 12 -17 -3
-4 -10 7 -18 15 -18 17 0 8 8 3 21 -13z m63 -19 c11 -28 6 -39 -9 -20 -8 11
-15 23 -15 28 0 14 18 9 24 -8z m1843 -76 c-2 -18 -4 -4 -4 32 0 36 2 50 4 33
2 -18 2 -48 0 -65z m-1922 42 c3 -5 1 -10 -4 -10 -6 0 -11 5 -11 10 0 6 2 10
4 10 3 0 8 -4 11 -10z m1213 -2 c-2 -6 -12 -12 -22 -14 -14 -2 -15 0 -5 12 14
17 32 19 27 2z m-618 -17 c0 -5 -7 -12 -16 -15 -14 -5 -15 -4 -4 9 14 17 20
19 20 6z m-570 -22 c0 -14 -17 -10 -23 5 -4 10 -1 13 9 9 7 -3 14 -9 14 -14z
m180 6 c6 -8 8 -20 4 -26 -5 -9 -11 -7 -21 6 -23 33 -9 51 17 20z m987 -37
c-3 -8 -6 -5 -6 6 -1 11 2 17 5 13 3 -3 4 -12 1 -19z m-951 -20 c-9 -12 -16
-19 -16 -15 0 11 24 47 28 42 2 -2 -3 -14 -12 -27z m861 0 c-3 -7 -5 -2 -5 12
0 14 2 19 5 13 2 -7 2 -19 0 -25z m-2458 5 c-6 -10 -28 -28 -48 -41 l-36 -23
42 41 c45 43 60 51 42 23z m1321 -4 c0 -6 -4 -7 -10 -4 -5 3 -10 11 -10 16 0
6 5 7 10 4 6 -3 10 -11 10 -16z m1789 -81 c-2 -115 -7 -106 -11 20 -2 45 0 82
4 82 5 0 7 -46 7 -102z m-3209 85 c-1 -15 -25 -38 -53 -51 -26 -11 -27 -11
-17 7 15 29 40 51 56 51 8 0 14 -3 14 -7z m580 -42 c0 -11 3 -12 8 -5 5 9 10
8 19 -1 10 -10 9 -15 -4 -19 -20 -8 -19 -9 -38 40 -14 34 -14 37 0 20 8 -11
15 -27 15 -35z m1880 9 c0 -5 -2 -10 -4 -10 -3 0 -8 5 -11 10 -3 6 -1 10 4 10
6 0 11 -4 11 -10z m927 -87 c-2 -21 -4 -6 -4 32 0 39 2 55 4 38 2 -18 2 -50 0
-70z m-1347 78 c0 -13 -38 -21 -90 -20 l-45 1 55 13 c70 16 80 17 80 6z m407
-86 c-4 -8 -11 -15 -17 -15 -6 0 -6 7 2 20 14 22 24 19 15 -5z m569 -22 c-7
-7 -26 7 -26 19 0 6 6 6 15 -2 9 -7 13 -15 11 -17z m66 10 c31 -37 30 -47 -3
-18 -19 17 -36 31 -38 33 -2 1 2 2 11 2 8 0 22 -8 30 -17z m-552 -13 c0 -5 -4
-10 -10 -10 -5 0 -10 5 -10 10 0 6 5 10 10 10 6 0 10 -4 10 -10z m228 -34 c0
-17 -5 -23 -15 -19 -8 3 -12 12 -9 20 3 8 6 19 6 24 0 6 4 8 9 5 5 -3 9 -17 9
-30z m651 -235 c6 -134 9 -246 7 -248 -4 -5 -14 139 -24 364 -4 78 -4 139 -1
135 3 -4 11 -117 18 -251z m-976 229 c-3 -11 -9 -20 -15 -20 -5 0 -4 9 2 20 6
11 12 20 14 20 2 0 2 -9 -1 -20z m581 -6 c9 -24 2 -26 -12 -4 -7 11 -8 20 -3
20 5 0 12 -7 15 -16z m136 -9 c0 -7 -7 -15 -15 -19 -17 -6 -21 9 -5 19 6 4 7
11 4 17 -4 7 -2 8 4 4 7 -4 12 -13 12 -21z m-508 -80 c14 -26 0 -11 -46 50
l-38 50 36 -40 c20 -22 42 -49 48 -60z m-1291 27 c-9 -17 -8 -19 7 -16 9 3 25
-1 35 -8 17 -13 16 -16 -11 -68 -16 -30 -34 -56 -40 -58 -15 -5 -43 53 -36 72
7 17 -11 22 -21 6 -3 -5 -14 -10 -25 -10 -14 0 -17 6 -13 23 3 18 1 16 -14 -8
-9 -16 -16 -33 -15 -37 1 -5 -9 -8 -22 -8 l-25 0 27 41 c26 40 27 40 74 34 47
-7 48 -6 65 29 9 20 18 34 21 32 2 -2 -1 -13 -7 -24z m1159 -22 c12 -23 10
-22 -16 5 -17 17 -28 33 -26 38 4 9 25 -12 42 -43z m523 30 c-3 -12 -8 -19
-11 -16 -5 6 5 36 12 36 2 0 2 -9 -1 -20z m-1443 -10 c0 -5 -5 -10 -11 -10 -5
0 -7 5 -4 10 3 6 8 10 11 10 2 0 4 -4 4 -10z m976 -17 c-10 -10 -19 5 -10 18
6 11 8 11 12 0 2 -7 1 -15 -2 -18z m-1116 -4 c0 -5 -7 -9 -15 -9 -15 0 -20 12
-9 23 8 8 24 -1 24 -14z m61 -35 c-5 -21 -9 -30 -10 -19 -1 24 10 67 15 62 3
-2 0 -22 -5 -43z m887 4 c12 -21 17 -38 12 -38 -11 0 -40 52 -40 71 0 15 1 14
28 -33z m301 -83 c0 -5 -5 -19 -10 -30 -8 -16 -9 -14 -5 11 3 20 -2 41 -15 60
-10 16 -19 34 -19 39 1 6 12 -8 25 -30 14 -22 25 -44 24 -50z m610 -15 c60
-85 71 -117 64 -183 -3 -32 -9 -57 -13 -57 -11 0 -8 63 3 78 8 11 -6 52 -31
92 -2 2 -7 -2 -13 -10 -7 -11 -8 -7 -3 13 4 17 1 36 -10 52 -9 14 -23 36 -32
50 -32 49 -6 24 35 -35z m-840 34 c2 -2 -7 -4 -22 -4 -14 0 -29 5 -32 10 -6
10 42 4 54 -6z m773 -16 c-8 -8 -9 -15 0 -25 8 -11 7 -12 -6 -7 -9 3 -16 9
-16 13 0 8 22 31 29 31 3 0 0 -5 -7 -12z m-1848 -19 c3 1 6 -1 6 -4 0 -3 0 -9
0 -15 0 -5 -8 -10 -18 -10 -13 0 -18 6 -16 23 4 33 4 33 13 19 4 -8 11 -13 15
-13z m176 14 c0 -1 -5 -14 -12 -28 -16 -36 -48 -34 -48 4 0 25 3 28 30 27 16
-1 30 -2 30 -3z m795 -33 c3 -5 1 -10 -4 -10 -6 0 -11 5 -11 10 0 6 2 10 4 10
3 0 8 -4 11 -10z m922 -22 c-3 -7 -5 -2 -5 12 0 14 2 19 5 13 2 -7 2 -19 0
-25z m-324 5 c-7 -2 -19 -2 -25 0 -7 3 -2 5 12 5 14 0 19 -2 13 -5z m181 -28
c-4 -8 -10 -15 -15 -15 -5 0 -11 0 -14 0 -3 0 -4 3 -2 8 1 4 5 6 10 5 4 -2 7
2 7 7 0 6 4 10 10 10 5 0 7 -7 4 -15z m-460 -48 c-9 -5 -18 -6 -21 -3 -4 3 -1
6 5 6 7 0 12 8 12 18 0 14 2 15 10 2 6 -10 4 -17 -6 -23z m368 1 c-8 -8 -9 -4
-5 13 4 13 8 18 11 10 2 -7 -1 -18 -6 -23z m-8 -104 c5 -14 4 -15 -9 -4 -17
14 -19 20 -6 20 5 0 12 -7 15 -16z m383 -131 c-2 -16 -4 -3 -4 27 0 30 2 43 4
28 2 -16 2 -40 0 -55z m-107 5 c0 -4 -9 -12 -20 -18 -18 -10 -20 -8 -20 20 0
28 2 29 20 18 11 -7 20 -16 20 -20z m-1835 -80 c12 -36 12 -40 1 -25 -11 14
-16 15 -22 5 -5 -7 -7 -21 -6 -30 2 -11 -3 -18 -12 -18 -12 0 -15 10 -13 39 2
22 6 44 11 48 4 4 6 2 4 -6 -1 -7 3 -16 11 -19 10 -3 12 1 8 14 -3 11 -9 30
-12 44 -10 39 12 0 30 -52z m768 37 c-15 -19 -32 -35 -37 -35 -6 0 -19 -8 -31
-17 -11 -10 4 5 35 34 30 29 56 52 58 53 2 0 -10 -16 -25 -35z m1184 -122 c-2
-16 -4 -3 -4 27 0 30 2 43 4 28 2 -16 2 -40 0 -55z m-2015 45 c-11 -11 -32 -3
-32 12 0 4 9 6 21 3 13 -4 17 -9 11 -15z m1685 6 c-3 -3 -12 -4 -19 -1 -8 3
-5 6 6 6 11 1 17 -2 13 -5z m-999 -132 c-38 -81 -57 -112 -70 -112 -10 0 -18
5 -18 10 0 6 7 10 16 10 8 0 12 5 9 10 -3 6 -1 10 5 10 6 0 9 4 6 8 -3 5 10
29 28 54 17 25 40 64 51 87 10 23 20 40 22 38 1 -2 -21 -54 -49 -115z m949 86
c-3 -8 -6 -5 -6 6 -1 11 2 17 5 13 3 -3 4 -12 1 -19z m136 -3 c-7 -21 -13 -19
-13 6 0 11 4 18 10 14 5 -3 7 -12 3 -20z m-148 -45 c-4 -12 -9 -19 -12 -17 -3
3 -2 15 2 27 4 12 9 19 12 17 3 -3 2 -15 -2 -27z m132 -12 c-3 -7 -5 -2 -5 12
0 14 2 19 5 13 2 -7 2 -19 0 -25z m270 -50 c-2 -13 -4 -3 -4 22 0 25 2 35 4
23 2 -13 2 -33 0 -45z m-2217 20 c0 -5 -4 -8 -10 -8 -5 0 -10 10 -10 23 0 18
2 19 10 7 5 -8 10 -18 10 -22z m2165 3 c-3 -6 -11 -11 -16 -11 -5 0 -4 6 3 14
14 16 24 13 13 -3z m-370 -8 c-4 -10 -8 -25 -9 -33 -1 -8 -14 -52 -30 -97 -22
-65 -32 -83 -47 -83 -11 0 -19 7 -20 18 -1 16 -2 16 -6 -1 -3 -13 -15 -17 -46
-17 -53 0 -368 38 -375 45 -11 10 347 12 398 1 l36 -7 23 68 c13 37 36 80 50
94 32 33 35 34 26 12z m142 -5 c-3 -8 -6 -5 -6 6 -1 11 2 17 5 13 3 -3 4 -12
1 -19z m-1894 -33 c-3 -9 -8 -14 -10 -11 -3 3 -2 9 2 15 9 16 15 13 8 -4z
m1799 -14 c-9 -16 -18 -28 -21 -26 -4 5 27 55 34 55 2 0 -4 -13 -13 -29z
m-952 -16 c11 -13 10 -14 -4 -9 -9 3 -16 10 -16 15 0 13 6 11 20 -6z m-1023
-57 c-3 -7 -5 -2 -5 12 0 14 2 19 5 13 2 -7 2 -19 0 -25z m218 -8 c3 -6 -1 -7
-9 -4 -18 7 -21 14 -7 14 6 0 13 -4 16 -10z m1112 4 c-3 -3 -12 -4 -19 -1 -8
3 -5 6 6 6 11 1 17 -2 13 -5z m-1543 -93 c-20 -45 -39 -80 -41 -77 -2 2 12 41
33 85 20 45 39 80 41 77 2 -2 -12 -41 -33 -85z m2226 56 c0 -5 -4 -5 -10 -2
-5 3 -10 14 -10 23 0 15 2 15 10 2 5 -8 10 -19 10 -23z m290 13 c0 -5 -2 -10
-4 -10 -3 0 -8 5 -11 10 -3 6 -1 10 4 10 6 0 11 -4 11 -10z m-340 -14 c0 -2
-7 -7 -16 -10 -8 -3 -12 -2 -9 4 6 10 25 14 25 6z m54 -18 c4 4 6 -11 4 -32
-3 -40 -14 -52 -35 -38 -8 5 -10 21 -6 45 4 28 9 35 18 27 6 -5 15 -7 19 -2z
m95 -34 c4 3 13 1 21 -4 11 -7 12 -12 3 -21 -16 -16 -54 6 -46 28 4 11 8 13
11 5 2 -7 7 -10 11 -8z m-1879 -14 c0 -11 -2 -20 -4 -20 -2 0 -6 9 -9 20 -3
11 -1 20 4 20 5 0 9 -9 9 -20z m633 5 c-3 -9 -8 -14 -10 -11 -3 3 -2 9 2 15 9
16 15 13 8 -4z m-963 -15 c0 -5 -5 -10 -11 -10 -5 0 -7 5 -4 10 3 6 8 10 11
10 2 0 4 -4 4 -10z m1087 -6 c-3 -3 -12 -4 -19 -1 -8 3 -5 6 6 6 11 1 17 -2
13 -5z"/>
<path d="M882 3480 c0 -14 2 -19 5 -12 2 6 2 18 0 25 -3 6 -5 1 -5 -13z"/>
<path d="M1680 3526 c0 -2 8 -10 18 -17 15 -13 16 -12 3 4 -13 16 -21 21 -21
13z"/>
<path d="M2571 2924 c0 -11 3 -14 6 -6 3 7 2 16 -1 19 -3 4 -6 -2 -5 -13z"/>
<path d="M2360 2911 c0 -5 5 -13 10 -16 6 -3 10 -2 10 4 0 5 -4 13 -10 16 -5
3 -10 2 -10 -4z"/>
<path d="M2483 2578 c1 -21 5 -38 10 -38 10 0 8 42 -3 60 -7 11 -9 5 -7 -22z"/>
<path d="M2540 2561 c1 -9 7 -27 15 -41 15 -27 19 -18 6 15 -5 11 -5 25 0 31
5 7 3 11 -6 11 -8 0 -15 -7 -15 -16z"/>
<path d="M2542 2470 c0 -14 2 -19 5 -12 2 6 2 18 0 25 -3 6 -5 1 -5 -13z"/>
<path d="M3790 2540 c0 -5 5 -10 11 -10 5 0 7 5 4 10 -3 6 -8 10 -11 10 -2 0
-4 -4 -4 -10z"/>
<path d="M3660 2520 c0 -5 5 -10 11 -10 5 0 7 5 4 10 -3 6 -8 10 -11 10 -2 0
-4 -4 -4 -10z"/>
<path d="M3936 2434 c-5 -17 -1 -35 9 -50 9 -14 13 -30 9 -37 -4 -7 -4 -9 0
-5 5 4 19 -5 33 -20 18 -20 23 -22 19 -9 -3 11 -9 31 -12 45 -4 15 -14 35 -22
45 -9 10 -17 25 -18 33 -4 27 -11 26 -18 -2z"/>
<path d="M2641 2384 c0 -11 3 -14 6 -6 3 7 2 16 -1 19 -3 4 -6 -2 -5 -13z"/>
<path d="M2775 2280 c27 -12 43 -12 25 0 -8 5 -22 9 -30 9 -10 0 -8 -3 5 -9z"/>
<path d="M3749 2013 c-13 -16 -12 -17 4 -4 16 13 21 21 13 21 -2 0 -10 -8 -17
-17z"/>
<path d="M3790 1910 c0 -5 5 -10 10 -10 6 0 10 5 10 10 0 6 -4 10 -10 10 -5 0
-10 -4 -10 -10z"/>
<path d="M3602 1860 c-6 -22 -12 -54 -12 -71 0 -30 1 -31 23 -16 18 12 22 23
19 57 -4 64 -15 76 -30 30z"/>
<path d="M3606 1691 c-3 -24 -4 -47 -1 -49 3 -3 5 2 5 11 0 10 7 17 15 17 8 0
15 6 15 13 0 6 3 22 6 34 5 17 2 22 -14 20 -16 -1 -21 -11 -26 -46z"/>
<path d="M3921 1644 c0 -11 3 -14 6 -6 3 7 2 16 -1 19 -3 4 -6 -2 -5 -13z"/>
<path d="M3913 1575 c0 -22 2 -30 4 -17 2 12 2 30 0 40 -3 9 -5 -1 -4 -23z"/>
<path d="M2338 1543 c-7 -14 37 -90 50 -85 7 2 12 -1 12 -8 0 -6 5 -8 10 -5 6
4 -2 23 -22 48 -45 59 -45 60 -50 50z"/>
<path d="M2086 1477 c3 -10 9 -15 12 -12 3 3 0 11 -7 18 -10 9 -11 8 -5 -6z"/>
<path d="M3849 93 c-13 -16 -12 -17 4 -4 16 13 21 21 13 21 -2 0 -10 -8 -17
-17z"/>
</g>
</svg>
